<svg xmlns="http://www.w3.org/2000/svg" width="1000" height="1000" viewBox="0 0 1000 1000">
    <g fill="#323232">
        <path d="M335-121l177 24 115-8-292-16zM512-97l-68 74 74 4-6-78z"/>
    </g>
    <g fill="#313131">
        <path d="M335-121l292 16 86-7-378-9zM335-121l81 34 96-10-177-24zM512-97l6 78 56-67-62-11z"/>
        <path d="M416-87l28 64 68-74-96 10z"/>
    </g>
    <g fill="#303030">
        <path d="M512-97l62 11 53-19-115 8zM518-19l-40 53 48 64-8-117z"/>
        <path d="M444-23l34 57 40-53-74-4zM444 29l-24 82 58-77-34-5z"/>
        <path d="M444-23v52l34 5-34-57zM416-87L336 2l108-25-28-64z"/>
        <path d="M335-121l1 123 80-89-81-34z"/>
    </g>
    <g fill="#2F2F2F">
        <path d="M574-86l28 57 25-76-53 19zM518-19l82 60 2-70-84 10z"/>
        <path d="M574-86l-56 67 84-10-28-57zM518-19l8 117 74-57-82-60zM439 206l85 4 2-112-87 108z"/>
        <path d="M420 111l19 95 87-108-106 13z"/>
        <path d="M478 34l-58 77 106-13-48-64zM336 2l22 47 86-20L336 2z"/>
        <path d="M358 49l62 62 24-82-86 20zM336 2l108 27v-52L336 2zM335-121l-54 68 55 55-1-123zM221-119l50 22 64-24-114 2z"/>
        <path d="M271-97l10 44 54-68-64 24zM221-119l-24 77 74-55-50-22z"/>
    </g>
    <g fill="#2E2E2E">
        <path d="M627-105l38 60 48-67-86 7zM602-29l-2 70 65-86-63 16z"/>
        <path d="M627-105l-25 76 63-16-38-60zM526 98l42 46 32-103-74 57z"/>
        <path d="M526 98l-2 112 44-66-42-46zM439 206l68 78 17-74-85-4zM420 111l-48 36 67 59-19-95z"/>
        <path d="M358 49l14 98 48-36-62-62zM336 2l-36 27 58 20-22-47z"/>
        <path d="M281-53l19 82 36-27-55-55z"/>
        <path d="M281-53l-79 78 98 4-19-82z"/>
        <path d="M197-42l5 67 79-78-84 11z"/>
        <path d="M271-97l-74 55 84-11-10-44zM131-104l66 62 24-77-90 15z"/>
    </g>
    <g fill="#2D2D2D">
        <path d="M64-97l67-7 90-15L64-97z"/>
        <path d="M-39-90l103-7 157-22-260 29zM600 41l52 25 13-111-65 86zM600 41l-32 103 70-24-38-79zM524 210l23 8 21-74-44 66z"/>
        <path d="M524 210l-17 74 40-66-23-8zM507 284l-65 42 76 32-11-74zM439 206l-16 64 84 14-68-78zM372 147l-37 57 104 2-67-59zM300 29l-20 120 78-100-58-20zM358 49l-78 100 92-2-14-98z"/>
        <path d="M217 103l63 46 20-120-83 74z"/>
        <path d="M202 25l15 78 83-74-98-4zM131-104l-24 51 90 11-66-62z"/>
        <path d="M64-97l43 44 24-51-67 7z"/>
    </g>
    <g fill="#2C2C2C">
        <path d="M-106-84l67-6 260-29-327 35zM713-112l-48 67 82 34-34-101zM665-45L652 66l55-30-42-81zM568 144l-21 74 39 29-18-103zm32-103l38 79 14-54-52-25zM507 284l48 52 31-89-79 37z"/>
        <path d="M547 218l-40 66 79-37-39-29zM507 284l11 74 37-22-48-52zM442 326l63 74 13-42-76-32zM423 270l19 56 65-42-84-14zM335 204l88 66 16-64-104-2zM280 149l55 55 37-57-92 2zM202 25l-79 24 94 54-15-78z"/>
        <path d="M107-53l16 102 74-91-90-11zm90 11l-74 91 79-24-5-67z"/>
        <path d="M107-53L44-24l79 73-16-102z"/>
        <path d="M64-97L44-24l63-29-43-44z"/>
    </g>
    <g fill="#2B2B2B">
        <path d="M713-112l75 24 59-2-134-22z"/>
        <path d="M713-112l68 59 7-35-75-24z"/>
        <path d="M713-112l34 101 34-42-68-59zM665-45l42 81 40-47-82-34zM638 120l-70 24 99 37-29-61zm-70 24l18 103 81-66-99-37zM518 358l35 66 2-88-37 22z"/>
        <path d="M518 358l-13 42 48 24-35-66z"/>
        <path d="M505 400l-17 75 65-51-48-24z"/>
        <path d="M398 439l90 36 17-75-107 39z"/>
        <path d="M442 326l-44 113 107-39-63-74zM423 270l-74 19 93 37-19-56z"/>
        <path d="M349 289l-13 71 106-34-93-37zM335 204l14 85 74-19-88-66z"/>
        <path d="M335 204l-73 70 87 15-14-85z"/>
        <path d="M252 201l10 73 73-70-83-3z"/>
        <path d="M280 149l-28 52 83 3-55-55z"/>
        <path d="M210 181l42 20 28-52-70 32z"/>
        <path d="M217 103l-7 78 70-32-63-46zM210 181l14 78 28-58-42-20z"/>
        <path d="M132 152l78 29 7-78-85 49z"/>
        <path d="M123 49l9 103 85-49-94-54zM-19-39l63 15 20-73-83 58z"/>
        <path d="M-39-90l20 51 83-58-103 7z"/>
    </g>
    <g fill="#2A2A2A">
        <path d="M788-88l-7 35 66-37-59 2zM747-11l-40 47 95 18-55-65zM638 120l29 61 80-58-109-3zm69-84l-55 30 95 57-40-87z"/>
        <path d="M652 66l-14 54 109 3-95-57zM667 181l-81 66 85 3-4-69zm-81 66l49 113 36-110-85-3z"/>
        <path d="M586 247l-31 89 80 24-49-113z"/>
        <path d="M555 336l-2 88 82-64-80-24zM553 424l-65 51 69 36-4-87z"/>
        <path d="M488 475l-40 37 109-1-69-36zm-40 37l29 71 80-72-109 1z"/>
        <path d="M398 439l50 73 40-37-90-36zM336 360l62 79 44-113-106 34zM257 335l79 25 13-71-92 46z"/>
        <path d="M262 274l-5 61 92-46-87-15zM252 201l-28 58 38 15-10-73z"/>
        <path d="M224 259l-28 65 66-50-38-15zM210 181l-64 22 78 56-14-78z"/>
        <path d="M132 152l14 51 64-22-78-29zM123 49l-70 71 79 32-9-103z"/>
        <path d="M31 70l22 50 70-71-92 21z"/>
        <path d="M44-24L31 70l92-21-79-73z"/>
        <path d="M-17 75l48-5 13-94-61 99z"/>
        <path d="M-19-39l2 114 61-99-63-15z"/>
        <path d="M-19-39l-55-8 57 122-2-114z"/>
        <path d="M-39-90l-35 43 55 8-20-51z"/>
        <path d="M-106-84l32 37 35-43-67 6z"/>
    </g>
    <g fill="#292929">
        <path d="M713-112l134 22 125-3-259-19zM781-53l21 107 71-107h-92zM847-90l-66 37h92l-26-37z"/>
        <path d="M781-53l-34 42 55 65-21-107zM707 36l40 87 55-69-95-18zM667 181l4 69 68-75-72 6z"/>
        <path d="M667 181l72-6 8-52-80 58zM448 512l-13 37 42 34-29-71z"/>
        <path d="M333 480l102 69 13-37-115-32z"/>
        <path d="M398 439l-65 41 115 32-50-73zM336 360l3 53 59 26-62-79z"/>
        <path d="M339 413l-6 67 65-41-59-26z"/>
        <path d="M275 422l58 58 6-67-64 9z"/>
        <path d="M336 360l-61 62 64-9-3-53z"/>
        <path d="M257 335l18 87 61-62-79-25zM196 324l61 11 5-61-66 50zM132 283l64 41 28-65-92 24z"/>
        <path d="M146 203l-14 80 92-24-78-56z"/>
        <path d="M132 152l-71 55 85-4-14-51zm-71 55l71 76 14-80-85 4z"/>
        <path d="M53 120l8 87 71-55-79-32zM31 70l-48 5 70 45-22-50zM-74-47l-43 101 100 21-57-122z"/>
        <path d="M-106-84l-11 138 43-101-32-37z"/>
    </g>
    <g fill="#282828">
        <path d="M802 54h56l15-107-71 107zM671 250l60 50 8-125-68 75z"/>
        <path d="M671 250l-36 110 96-60-60-50zM553 424l4 87 104-78-108-9z"/>
        <path d="M635 360l-82 64 108 9-26-73zM557 511l-80 72 104 8-24-80zM477 583l39 42 65-34-104-8zM443 663l68 48 5-86-73 38z"/>
        <path d="M477 583l-34 80 73-38-39-42z"/>
        <path d="M435 549l8 114 34-80-42-34z"/>
        <path d="M435 549l-87 77 95 37-8-114zM333 480l-4 67 106 2-102-69z"/>
        <path d="M281 516l48 31 4-67-52 36z"/>
        <path d="M275 422l6 94 52-36-58-58zM257 335l-47 91 65-4-18-87zM210 426l4 46 61-50-65 4z"/>
        <path d="M196 324l14 102 47-91-61-11zM132 283l-26 60 90-19-64-41zM61 207l-8 81 79-5-71-76zM53 120l-92 68 100 19-8-87z"/>
        <path d="M-51 152l12 36 92-68-104 32z"/>
        <path d="M-17 75l-34 77 104-32-70-45z"/>
        <path d="M-111 105l60 47 34-77-94 30z"/>
        <path d="M-117 54l6 51 94-30-100-21z"/>
    </g>
    <g fill="#272727">
        <path d="M713-112l259 19 117-8-376-11zM847-90l26 37 99-40-125 3zM873-53L858 54l74-87-59-20zM802 54l20 89 36-89h-56z"/>
        <path d="M802 54l-55 69 75 20-20-89z"/>
        <path d="M747 123l-8 52 83-32-75-20zM635 360h84l12-60-96 60zM635 360l26 73 58-73h-84zM661 433l-104 78 116-30-12-48zM557 511l24 80 92-110-116 30zM581 591l-65 34 79 52-14-86zM516 625l31 88 48-36-79-52z"/>
        <path d="M516 625l-5 86 36 2-31-88zM511 711l10 65 26-63-36-2z"/>
        <path d="M414 708l17 98 80-95-97-3zm97 3l-80 95 90-30-10-65z"/>
        <path d="M443 663l-29 45 97 3-68-48z"/>
        <path d="M348 626l66 82 29-45-95-37zM329 547l19 79 87-77-106-2zM281 516l-32 64 80-33-48-31zM275 422l-61 50 67 44-6-94z"/>
        <path d="M214 472l-33 86 100-42-67-44zM196 324l-80 76 94 26-14-102z"/>
        <path d="M106 343l10 57 80-76-90 19zM53 288l53 55 26-60-79 5z"/>
        <path d="M53 288l-2 40 55 15-53-55z"/>
        <path d="M51 328l15 97 40-82-55-15zM-12 252l65 36 8-81-73 45z"/>
        <path d="M-39 188l27 64 73-45-100-19zM-12 252l63 76 2-40-65-36zM-51 152l-63 48 75-12-12-36z"/>
        <path d="M-111 105l-3 95 63-48-60-47z"/>
        <path d="M-117 54l3 146 3-95-6-51z"/>
    </g>
    <g fill="#262626">
        <path d="M873-53l59 20 40-60-99 40zM858 54l70 1 4-88-74 87zM858 54l-36 89 70-17-34-72zM822 143l-83 32 88 38-5-70zm-83 32l54 113 34-75-88-38z"/>
        <path d="M739 175l-8 125 62-12-54-113zM719 360l-58 73 69 4-11-77zM661 433l12 48 57-44-69-4zM581 591l88 5 4-115-92 110zM431 806l72 78 18-108-90 30zM348 626l-16 102 82-20-66-82z"/>
        <path d="M285 638l47 90 16-102-63 12z"/>
        <path d="M329 547l-44 91 63-12-19-79z"/>
        <path d="M249 580l36 58 44-91-80 33zM181 558l68 22 32-64-100 42zM120 504l61 54 33-86-94 32zM116 400l4 104 90-78-94-26z"/>
        <path d="M210 426l-90 78 94-32-4-46zM106 343l-40 82 50-25-10-57zM51 328l-94 13 109 84-15-97z"/>
        <path d="M-12 252l-31 89 94-13-63-76z"/>
        <path d="M-79 267l36 74 31-89-67 15z"/>
        <path d="M-39 188l-40 79 67-15-27-64z"/>
        <path d="M-114 200l35 67 40-79-75 12z"/>
    </g>
    <g fill="#252525">
        <path d="M932-33l-4 88 80-1-76-87zm40-60l-40 60 83-45-43-15zM858 54l34 72 36-71-70-1zM822 143l5 70 63 6-68-76z"/>
        <path d="M822 143l68 76 2-93-70 17zM719 360l53 55 39-74-92 19zM793 288l-62 12 80 41-18-53z"/>
        <path d="M731 300l-12 60 92-19-80-41zM719 360l11 77 42-22-53-55zM673 481l55 41 2-85-57 44z"/>
        <path d="M673 481l-4 115 59-74-55-41zM581 591l75 55 13-50-88-5z"/>
        <path d="M581 591l14 86 61-31-75-55zM547 713l25 90 63-84-88-6z"/>
        <path d="M595 677l-48 36 88 6-40-42zM547 713l-26 63 51 27-25-90z"/>
        <path d="M521 776l-18 108 69-81-51-27zM431 806l-31 92 103-14-72-78zM400 898l46 44 57-58-103 14zM414 708l-56 93 73 5-17-98z"/>
        <path d="M332 728l26 73 56-93-82 20zM285 638l-5 85 52 5-47-90zM249 580l-44 78 80-20-36-58z"/>
        <path d="M181 558l24 100 44-78-68-22zM120 504l14 46 47 8-61-54zM116 400l-50 25 54 79-4-104z"/>
        <path d="M66 425l-43 79h97l-54-79zM-108 349l35 56 30-64-65 8z"/>
        <path d="M-79 267l-29 82 65-8-36-74z"/>
        <path d="M-114 200l6 149 29-82-35-67z"/>
    </g>
    <g fill="#242424">
        <path d="M972-93l43 15 74-23-117 8zM1015-78l-83 45 91 22-8-67z"/>
        <path d="M932-33l76 87 15-65-91-22zM928 55l-36 71 74 4-38-75zM793 288l18 53 54 13-72-66zM890 219l-63-6 69 45-6-39z"/>
        <path d="M827 213l-34 75 103-30-69-45zM772 415l-42 22 55 59-13-81z"/>
        <path d="M730 437l-2 85 57-26-55-59zM669 596l-13 50 70-5-57-45zM635 719l-63 84 64 23-1-107zm-40-42l40 42 21-73-61 31zM568 881l-65 3 87 58-22-61z"/>
        <path d="M503 884l-14 70 101-12-87-58zM503 884l65-3 4-78-69 81zM489 954l-49 50 87 15-38-65z"/>
        <path d="M446 942l43 12 14-70-57 58z"/>
        <path d="M446 942l-6 62 49-50-43-12zM374 888l26 10 31-92-57 82z"/>
        <path d="M358 801l16 87 57-82-73-5zM374 888l-8 37 34-27-26-10zM332 728l-52 58 78 15-26-73z"/>
        <path d="M280 786l-12 75 90-60-78-15zM280 723v63l52-58-52-5zM205 658l75 65 5-85-80 20z"/>
        <path d="M205 658l14 85 61-20-75-65zM181 558l-54 75 78 25-24-100z"/>
        <path d="M134 550l-7 83 54-75-47-8z"/>
        <path d="M64 557l63 76 7-83-70 7z"/>
        <path d="M120 504l-56 53 70-7-14-46z"/>
        <path d="M23 504l41 53 56-53H23zM-42 450l65 54 43-79-108 25z"/>
        <path d="M-43 341l1 109 108-25-109-84z"/>
        <path d="M-43 341l-30 64 31 45-1-109zM-117 54l-11 654 14-508-3-146z"/>
    </g>
    <g fill="#232323">
        <path d="M1015-78l8 67 66-90-74 23zM928 55l38 75 42-76-80 1zM892 126l-2 93 60 5-58-98z"/>
        <path d="M892 126l58 98 16-94-74-4zM890 219l6 39 33-10-39-29zM793 288l72 66 31-96-103 30zM811 341l-39 74 94 5-55-79zM728 522l53 36 4-62-57 26zM728 522l-59 74 75 2-16-76zM669 596l57 45 18-43-75-2zm-13 50l69 56 1-61-70 5z"/>
        <path d="M656 646l-21 73 90-17-69-56zM568 881l22 61 52-75-74 14z"/>
        <path d="M636 826l-68 55 74-14-6-41z"/>
        <path d="M572 803l-4 78 68-55-64-23zM489 954l62 63 39-75-101 12z"/>
        <path d="M489 954l38 65 24-2-62-63zM440 1004l83 90 4-75-87-15zM366 925l74 79 6-62-80-17z"/>
        <path d="M400 898l-34 27 80 17-46-44zM366 925l-43 90 117-11-74-79zM268 861l98 64 8-37-106-27z"/>
        <path d="M358 801l-90 60 106 27-16-87zM212 785l56 76 12-75-68-1zm7-42l61 43v-63l-61 20z"/>
        <path d="M219 743l-7 42 68 1-61-43zM205 658l-93 93 107-8-14-85z"/>
        <path d="M127 633l-15 118 93-93-78-25zM64 557l-29 89 92-13-63-76zM23 504l-37 82 78-29-41-53z"/>
        <path d="M-40 508l26 78 37-82-63 4z"/>
        <path d="M-42 450l2 58 63-4-65-54z"/>
        <path d="M-42 450l-59 51 61 7-2-58z"/>
        <path d="M-73 405l-28 96 59-51-31-45z"/>
        <path d="M-108 349l7 152 28-96-35-56z"/>
        <path d="M-108 349l-3 222 10-70-7-152zM-114 200l-14 508 20-359-6-149z"/>
    </g>
    <g fill="#222">
        <path d="M558 1108l-301 13 475-9-174-4zM1089-101l-66 90 102-13-36-77zM1023-11l-15 65 105-28-90-37zM1008 54l-42 76 81 12-39-88zM896 258l-31 96 64 23-33-119z"/>
        <path d="M896 258l33 119V248l-33 10zM890 219l39 29 21-24-60-5zM785 496l71 14 10-90-81 76z"/>
        <path d="M772 415l13 81 81-76-94-5zm93-61l-54-13 55 79-1-66zM728 522l16 76 37-40-53-36zM725 702l-90 17 101 60-11-77zM635 719l1 107 100-47-101-60zM523 1094l-157 16 192-2-35-14z"/>
        <path d="M551 1017l-28 77 35 14-7-91z"/>
        <path d="M527 1019l-4 75 28-77-24 2zM440 1004l-38 83 121 7-83-90z"/>
        <path d="M323 1015l79 72 38-83-117 11zM273 967l50 48 43-90-93 42z"/>
        <path d="M268 861l5 106 93-42-98-64z"/>
        <path d="M268 861l-71 36 76 70-5-106z"/>
        <path d="M212 785l-15 112 71-36-56-76zM112 751l100 34 7-42-107 8z"/>
        <path d="M112 751l28 61 72-27-100-34zM51 719l61 32 15-118-76 86z"/>
        <path d="M35 646l16 73 76-86-92 13zM-14 586l49 60 29-89-78 29z"/>
        <path d="M-14 586l-1 50 50 10-49-60z"/>
        <path d="M-40 508l-71 63 97 15-26-78zm-34 116l59 12 1-50-60 38z"/>
        <path d="M-111 571l37 53 60-38-97-15zM-101 501l-10 70 71-63-61-7zM-128 708l17-137 3-222-20 359z"/>
    </g>
    <g fill="#212121">
        <path d="M366 1110l-109 11 301-13-192 2zM1023-11l90 37 12-50-102 13zM1113 26l-105 28 118 47-13-75zm-105 28l39 88 79-41-118-47zM966 130l78 56 3-44-81-12z"/>
        <path d="M966 130l-16 94 94-38-78-56zM950 224l-21 24 106 19-85-43zM929 248v129l91-43-91-86zM865 354l1 66 63-43-64-23zM856 510l-75 48 86 31-11-79z"/>
        <path d="M785 496l-4 62 75-48-71-14zm-4 62l-37 40 79 68-42-108z"/>
        <path d="M744 598l-18 43 97 25-79-68z"/>
        <path d="M726 641l-1 61 98-36-97-25zM636 826l77 40 23-87-100 47zM642 867l17 82 54-83-71 1z"/>
        <path d="M636 826l6 41 71-1-77-40zM642 867l-52 75 69 7-17-82zM590 942l36 65 33-58-69-7z"/>
        <path d="M590 942l-39 75 75-10-36-65zM402 1087l-36 23 157-16-121-7z"/>
        <path d="M323 1015l43 95 36-23-79-72zM273 967l-25 79 75-31-50-48zM197 897l-22 70h98l-76-70zM140 812l57 85 15-112-72 27z"/>
        <path d="M140 812l-18 37 75 48-57-85zM112 751l-35 37 63 24-28-61z"/>
        <path d="M77 788l45 61 18-37-63-24zM51 719l26 69 35-37-61-32zM-15 636l-36 83 86-73-50-10zM35 646l-86 73H51l-16-73z"/>
        <path d="M-74 624l23 95 36-83-59-12z"/>
    </g>
    <g fill="#202020">
        <path d="M1125-24l-12 50 13 75-1-125zM1047 142l-3 44 43-11-40-33zM950 224l85 43 9-81-94 38zM929 248l91 86 15-67-106-19zM929 377l-63 43 82 30-19-73zm-63 43l58 94 24-64-82-30z"/>
        <path d="M866 420l-10 90 68 4-58-94zM856 510l11 79 57-75-68-4zM781 558l42 108 44-77-86-31zM725 702l11 77 87-78-98 1z"/>
        <path d="M725 702l98-1v-35l-98 36zM659 949l-33 58 91-38-58-20zM626 1007l-75 10 96 58-21-68zm-75 10l7 91 89-33-96-58zM323 1015l-66 106 109-11-43-95z"/>
        <path d="M248 1046l9 75 66-106-75 31zM175 1017l73 29 25-79-98 50z"/>
        <path d="M175 967v50l98-50h-98zM103 942l72 25 22-70-94 45z"/>
        <path d="M122 849l-19 93 94-45-75-48z"/>
        <path d="M65 901l38 41 19-93-57 52z"/>
        <path d="M77 788L65 901l57-52-45-61z"/>
        <path d="M51 719L-53 821l130-33-26-69zM-53 821l21 36 109-69-130 33zm21 36l97 44 12-113-109 69z"/>
        <path d="M-51 719l-2 102L51 719H-51zM-74 624l-54 84 77 11-23-95z"/>
        <path d="M-111 571l-17 137 54-84-37-53z"/>
    </g>
    <g fill="#1F1F1F">
        <path d="M1087 175l-43 11 80 69-37-80z"/>
        <path d="M1044 186l-9 81 89-12-80-69zM1047 142l40 33 39-74-79 41zM1020 334l-91 43 119 47-28-90zm-91 43l19 73 100-26-119-47zM867 589l-44 77 73-12-29-65zM736 779l78 33 9-111-87 78z"/>
        <path d="M736 779l56 90 22-57-78-33zm-23 87l4 103 75-100-79-3z"/>
        <path d="M736 779l-23 87 79 3-56-90zM713 866l-54 83 58 20-4-103zM626 1007l21 68 100-48-121-20zM248 1046l-70 37 79 38-9-75z"/>
        <path d="M175 1017l3 66 70-37-73-29zM117 1018l58-1v-50l-58 51z"/>
        <path d="M175 1017l-58 1 61 65-3-66zM103 942l14 76 58-51-72-25zM65 901l-19 51 57-10-38-41z"/>
        <path d="M-32 857l78 95 19-51-97-44zM-116 821h63l2-102-65 102z"/>
        <path d="M-128 708l12 113 65-102-77-11z"/>
    </g>
    <g fill="#1E1E1E">
        <path d="M732 1112l-475 9 683 2-208-11zM1035 267l-15 67 67 35-52-102zM1087 175l37 80 2-154-39 74zM948 450l-24 64 92-16-68-48zM924 514l-57 75 79 6-22-81zM867 589l29 65 50-59-79-6zM823 701l66 44 7-91-73 47z"/>
        <path d="M823 666v35l73-47-73 12zM823 701l38 76 28-32-66-44z"/>
        <path d="M823 701l-9 111 47-35-38-76zM647 1075l-89 33 174 4-85-37zM717 969l-91 38 121 20-30-58zM178 1083l-67 20 146 18-79-38z"/>
        <path d="M117 1018l-6 85 67-20-61-65zM103 942l-52 60 66 16-14-76z"/>
        <path d="M46 952l5 50 52-60-57 10zM-32 857l-9 103 87-8-78-95z"/>
        <path d="M46 952l-87 8 92 42-5-50zM-123 899l82 61 9-103-91 42zM-116 821l-7 78 70-78h-63z"/>
        <path d="M-53 821l-70 78 91-42-21-36zM-128 708l5 191 7-78-12-113z"/>
    </g>
    <g fill="#1D1D1D">
        <path d="M111 1103l-220-10 366 28-146-18zM1035 267l52 102 37-114-89 12zM1087 369l21 33 16-147-37 114zM1020 334l28 90 39-55-67-35zM948 450l68 48 32-74-100 26zM924 514l75 70 17-86-92 16z"/>
        <path d="M924 514l22 81 53-11-75-70zM896 654l65 77 8-107-73 30z"/>
        <path d="M896 654l-7 91 72-14-65-77zm50-59l-50 59 73-30-23-29zM861 777l-47 35 84 66-37-101z"/>
        <path d="M814 812l-22 57 106 9-84-66zM792 869l-75 100 100-15-25-85zM717 969l30 58 70-73-100 15zM647 1075l85 37 15-85-100 48zM35 1077l-35 1 111 25-76-26z"/>
        <path d="M35 1077l76 26 6-85-82 59z"/>
        <path d="M51 1002l-16 75 82-59-66-16z"/>
        <path d="M0 1078l35-1 16-75-51 76z"/>
        <path d="M-40 1005l40 73 51-76-91 3z"/>
        <path d="M-41 960l1 45 91-3-92-42z"/>
        <path d="M-123 899l6 74 76-13-82-61zm82 61l-76 13 77 32-1-45z"/>
    </g>
    <g fill="#1C1C1C">
        <path d="M1048 424l-32 74 98 21-66-95zM1108 402l6 117 10-264-16 147zM1087 369l-39 55 60-22-21-33zm-71 129l-17 86 96-8-79-78zM999 584l-30 40 38 46-8-86z"/>
        <path d="M946 595l23 29 30-40-53 11zM861 777l37 101 27-97-64-4z"/>
        <path d="M889 745l-28 32 64 4-36-36zM792 869l25 85 81-76-106-9zM817 954l-70 73 80 2-10-75zM747 1027l-15 85 73-32-58-53zM0 1078l-109 15 220 10-111-25z"/>
        <path d="M-40 1005l-69 88 109-15-40-73zM-117 973l6 43 71-11-77-32zM-117 973l-6-74 14 194-8-120z"/>
    </g>
    <g fill="#1B1B1B">
        <path d="M1108 402l-60 22 66 95-6-117zM1016 498l79 78 19-57-98-21zM1007 670l-46 61 72-29-26-32z"/>
        <path d="M969 624l-8 107 46-61-38-46zM889 745l36 36 36-50-72 14zM925 781l-27 97 39-14-12-83zM817 954l10 75 74-59-84-16z"/>
        <path d="M898 878l-81 76 84 16-3-92zM827 1029l-22 51 54-37-32-14z"/>
        <path d="M747 1027l58 53 22-51-80-2zM-111 1016l2 77 69-88-71 11z"/>
        <path d="M-111 1016l-6-43 8 120-2-77z"/>
    </g>
    <g fill="#1A1A1A">
        <path d="M1095 576l5 81 14-138-19 57zM1114 519l5 203 5-467-10 264z"/>
        <path d="M1095 576l-96 8 101 73-5-81zm-96 8l8 86 93-13-101-73zM1033 702l-72 29 89 76-17-105z"/>
        <path d="M961 731l-36 50 125 26-89-76zM925 781l12 83 113-57-125-26zM805 1080l-73 32 208 11-135-43zM937 864l-39 14 64 62-25-76zM898 878l3 92 61-30-64-62zM827 1029l32 14 42-73-74 59zM859 1043l-54 37 97-9-43-28z"/>
    </g>
    <g fill="#191919">
        <path d="M1033 702l17 105 69-85-86-20zM1114 519l-14 138 19 65-5-203z"/>
        <path d="M1100 657l-67 45 86 20-19-65z"/>
        <path d="M1007 670l26 32 67-45-93 13zM962 940l-61 30 70 48-9-78zM901 970l1 101 69-53-70-48z"/>
        <path d="M901 970l-42 73 43 28-1-101zM902 1071l-97 9 135 43-38-52z"/>
    </g>
    <g fill="#181818">
        <path d="M1050 807l39 12 30-97-69 85z"/>
        <path d="M1050 807v45l39-33-39-12zM962 940l54 9 34-97-88 88z"/>
        <path d="M937 864l25 76 88-88-113 12z"/>
        <path d="M937 864l113-12v-45l-113 57zM962 940l9 78 45-69-54-9zM902 1071l38 52 31-105-69 53z"/>
    </g>
    <g fill="#171717">
        <path d="M1089 819l24 64 6-161-30 97z"/>
        <path d="M1089 819l-39 33 63 31-24-64z"/>
        <path d="M1050 852l24 111 39-80-63-31z"/>
        <path d="M1050 852l-34 97 58 14-24-111zM1016 949l-45 69 74-20-29-49zM971 1018l-31 105 91-20-60-85z"/>
    </g>
    <g fill="#161616">
        <path d="M971 1018l60 85 14-105-74 20zM1016 949l29 49 29-35-58-14z"/>
    </g>
    <g fill="#151515">
        <path d="M1074 963l-29 35 76 24-47-59z"/>
        <path d="M1113 883l-39 80 47 59-8-139z"/>
        <path d="M1119 722l-6 161 8 139-2-300zM1045 998l-14 105 54-15-40-90z"/>
    </g>
    <path d="M1045 998l40 90 36-66-76-24z" fill="#141414"/>
</svg>
